<?xml version="1.0" encoding="UTF-8"?>
<svg width="600" height="600" version="1.1" xmlns="http://www.w3.org/2000/svg">
  <path d="m169.52 276.86-62.878 108.91 125.76 1e-5 3.1489 5.4541h-138.35l69.177-119.82z"/>
  <path d="m433.63 271.41 69.176 119.82h-138.35l3.1489-5.4541 125.76-1e-5 -62.878-108.91z"/>
  <path d="m230.82 159.77 69.177-119.82 69.177 119.82-6.2978 1e-5 -62.879-108.91-62.879 108.91z"/>
  <path d="m328.59 453.34-28.591 49.521-28.59-49.52a57.182 57.182 0 0 0-28.591 49.52 57.182 57.182 0 0 0 57.181 57.181 57.182 57.182 0 0 0 57.181-57.181 57.182 57.182 0 0 0-28.59-49.521z"/>
  <path d="m498.08 102.59a57.182 57.182 0 0 0-57.181 57.182h57.181l-28.59 49.52a57.182 57.182 0 0 0 28.59 7.6613 57.182 57.182 0 0 0 57.181-57.181 57.182 57.182 0 0 0-57.181-57.182z"/>
  <path d="m101.92 102.59a57.182 57.182 0 0 0-57.181 57.182 57.182 57.182 0 0 0 57.181 57.181 57.182 57.182 0 0 0 28.591-7.6613l-28.59-49.52h57.181a57.182 57.182 0 0 0-57.182-57.182z"/>
</svg>
